<svg id="google-play-download-android-app-logo-svgrepo-com" xmlns="http://www.w3.org/2000/svg" xmlns:xlink="http://www.w3.org/1999/xlink" width="134.943" height="44.141" viewBox="0 0 134.943 44.141">
  <defs>
    <clipPath id="clip-path">
      <path id="Path_21424" data-name="Path 21424" d="M482.35,418.953l-6.085-3.513-11.737-6.777c-.652-.376-1.3-.148-1.3.638v27.61c0,.589.464.843,1.03.517l12.007-6.933,6.084-3.513,5.849-3.376c.686-.4.62-.94.041-1.252S482.35,418.953,482.35,418.953Z" transform="translate(-463.228 -408.486)"/>
    </clipPath>
    <linearGradient id="linear-gradient" x1="1.441" y1="1.519" x2="1.441" y2="1.436" gradientUnits="objectBoundingBox">
      <stop offset="0" stop-color="#257cb0"/>
      <stop offset="0.286" stop-color="#4a93b5"/>
      <stop offset="0.767" stop-color="#78bcbb"/>
      <stop offset="1" stop-color="#89cfbd"/>
    </linearGradient>
    <linearGradient id="linear-gradient-2" x1="1.103" y1="2.982" x2="1.187" y2="2.982" gradientUnits="objectBoundingBox">
      <stop offset="0" stop-color="#52c1ad"/>
      <stop offset="1" stop-color="#dee89a"/>
    </linearGradient>
    <linearGradient id="linear-gradient-3" x1="1.145" y1="1.94" x2="1.145" y2="1.857" gradientUnits="objectBoundingBox">
      <stop offset="0" stop-color="#ec413d"/>
      <stop offset="0.167" stop-color="#da4452"/>
      <stop offset="0.575" stop-color="#b0487a"/>
      <stop offset="0.862" stop-color="#954a92"/>
      <stop offset="1" stop-color="#8a4a9d"/>
    </linearGradient>
    <linearGradient id="linear-gradient-4" x1="0.704" y1="4.18" x2="0.704" y2="4.097" gradientUnits="objectBoundingBox">
      <stop offset="0" stop-color="#f58879"/>
      <stop offset="0.119" stop-color="#f69079"/>
      <stop offset="0.713" stop-color="#fcb877"/>
      <stop offset="1" stop-color="#fec874"/>
    </linearGradient>
  </defs>
  <path id="Path_21422" data-name="Path 21422" d="M137.8,38.99a5.965,5.965,0,0,1-5.964,5.966H8.825A5.966,5.966,0,0,1,2.86,38.99V6.779A5.966,5.966,0,0,1,8.825.814H131.839A5.965,5.965,0,0,1,137.8,6.779V38.99Z" transform="translate(-2.86 -0.814)"/>
  <g id="Group_11348" data-name="Group 11348" transform="translate(10.121 8.963)" clip-path="url(#clip-path)">
    <path id="Path_21423" data-name="Path 21423" d="M463.24,387.346v29.893l15.074-14.946Z" transform="translate(-463.24 -387.811)" fill="url(#linear-gradient)"/>
  </g>
  <g id="Group_11349" data-name="Group 11349" transform="translate(10.121 8.963)" clip-path="url(#clip-path)">
    <path id="Path_21425" data-name="Path 21425" d="M482.362,393.442l-6.085-3.513L463.24,382.4v.109l15.074,14.946Z" transform="translate(-463.24 -382.976)" fill="url(#linear-gradient-2)"/>
  </g>
  <g id="Group_11350" data-name="Group 11350" transform="translate(10.121 8.963)" clip-path="url(#clip-path)">
    <path id="Path_21427" data-name="Path 21427" d="M463.24,1082.116v.109l13.037-7.528,6.084-3.513-4.048-4.014Z" transform="translate(-463.24 -1052.688)" fill="url(#linear-gradient-3)"/>
  </g>
  <g id="Group_11351" data-name="Group 11351" transform="translate(10.121 8.963)" clip-path="url(#clip-path)">
    <path id="Path_21429" data-name="Path 21429" d="M1152.9,884.566l-4.049,4.015,4.048,4.014,6.954-4.015Z" transform="translate(-1133.774 -874.099)" fill="url(#linear-gradient-4)"/>
  </g>
  <path id="Path_21431" data-name="Path 21431" d="M1929.5,751.7a3.762,3.762,0,0,1-1.55-.313,2.922,2.922,0,0,1-1.178-.964h-.095a11.682,11.682,0,0,1,.095,1.444v3.577h-1.316v-12.6h1.07l.182,1.19h.063a3.058,3.058,0,0,1,1.182-1.031,3.592,3.592,0,0,1,1.546-.317,3.213,3.213,0,0,1,2.669,1.182,6.3,6.3,0,0,1-.016,6.643A3.218,3.218,0,0,1,1929.5,751.7Zm-.19-7.892a2.334,2.334,0,0,0-1.927.738,3.8,3.8,0,0,0-.611,2.348v.293a4.351,4.351,0,0,0,.611,2.622,2.323,2.323,0,0,0,1.959.789,2.038,2.038,0,0,0,1.766-.912,4.328,4.328,0,0,0,.638-2.515,4.166,4.166,0,0,0-.638-2.495A2.1,2.1,0,0,0,1929.307,743.808Zm6.848,7.733h-1.317V739.2h1.317Zm7.57,0-.262-1.237h-.063a3.649,3.649,0,0,1-1.3,1.106,3.946,3.946,0,0,1-1.614.29,2.906,2.906,0,0,1-2.027-.666,2.428,2.428,0,0,1-.734-1.9q0-2.633,4.212-2.76l1.476-.048v-.539a2.2,2.2,0,0,0-.441-1.511,1.809,1.809,0,0,0-1.408-.488,5.738,5.738,0,0,0-2.459.666l-.4-1.007a6.185,6.185,0,0,1,1.408-.547,6.092,6.092,0,0,1,1.534-.2,3.313,3.313,0,0,1,2.3.69,2.882,2.882,0,0,1,.749,2.213v5.933h-.976Zm-2.974-.928a2.674,2.674,0,0,0,1.931-.674,2.5,2.5,0,0,0,.7-1.888v-.785l-1.317.055a4.785,4.785,0,0,0-2.264.489,1.471,1.471,0,0,0-.694,1.344,1.353,1.353,0,0,0,.432,1.086A1.793,1.793,0,0,0,1940.751,750.614Zm4.714-7.766h1.411l1.9,4.958a19.007,19.007,0,0,1,.778,2.451h.063q.1-.405.432-1.385t2.153-6.024h1.413l-3.737,9.9a4.938,4.938,0,0,1-1.3,2.083,2.759,2.759,0,0,1-1.82.614,5.313,5.313,0,0,1-1.19-.135v-1.055a4.6,4.6,0,0,0,.976.1,2.011,2.011,0,0,0,1.935-1.523l.484-1.237Zm-40.358.808a2.962,2.962,0,0,1-.237,5.037,1.279,1.279,0,0,0-.509.892,1,1,0,0,0,.473.781l.655.508a3.166,3.166,0,0,1,1.527,2.547c0,1.709-1.655,3.436-4.782,3.436-2.637,0-3.909-1.254-3.909-2.6a2.616,2.616,0,0,1,1.4-2.218,7.838,7.838,0,0,1,3.473-.837,1.9,1.9,0,0,1-.546-1.235,1.643,1.643,0,0,1,.182-.71c-.2.018-.4.037-.583.037a2.874,2.874,0,0,1-3.018-2.854A3.269,3.269,0,0,1,1900.4,744a4.958,4.958,0,0,1,3.256-1h3.745l-1.164.655h-1.127Zm-1.291,8.074a2.819,2.819,0,0,0-.418-.019,7.279,7.279,0,0,0-1.91.292,2.042,2.042,0,0,0-1.564,1.872c0,1.29,1.255,2.219,3.2,2.219,1.744,0,2.673-.838,2.673-1.965C1905.8,753.2,1905.2,752.712,1903.815,751.73Zm.528-3.455a1.839,1.839,0,0,0,.453-1.328c0-1.309-.781-3.345-2.29-3.345a1.7,1.7,0,0,0-1.273.6,2.1,2.1,0,0,0-.4,1.346c0,1.218.709,3.237,2.274,3.237A1.86,1.86,0,0,0,1904.343,748.275Zm-10.683,3.164a4.284,4.284,0,0,1-4.429-4.285,4.5,4.5,0,0,1,4.7-4.411,4.244,4.244,0,0,1,4.337,4.284A4.435,4.435,0,0,1,1893.66,751.439Zm2.269-1.47a3.285,3.285,0,0,0,.545-2.016c0-1.6-.762-4.647-3.014-4.647a2.527,2.527,0,0,0-1.633.618,2.746,2.746,0,0,0-.836,2.215c0,1.8.889,4.754,3.087,4.754A2.32,2.32,0,0,0,1895.929,749.969Zm-12.108,1.47a4.284,4.284,0,0,1-4.43-4.285,4.5,4.5,0,0,1,4.7-4.411,4.244,4.244,0,0,1,4.338,4.284A4.435,4.435,0,0,1,1883.82,751.439Zm2.269-1.47a3.289,3.289,0,0,0,.545-2.016c0-1.6-.763-4.647-3.014-4.647a2.527,2.527,0,0,0-1.633.618,2.746,2.746,0,0,0-.835,2.215c0,1.8.889,4.754,3.087,4.754A2.32,2.32,0,0,0,1886.089,749.969ZM1878,751.154l-2.61.6a19.341,19.341,0,0,1-3.011.31c-5.038,0-6.954-3.705-6.954-6.607,0-3.54,2.719-6.825,7.374-6.825a10.515,10.515,0,0,1,2.792.383,7.125,7.125,0,0,1,2.409,1.132l-1.516,1.442-.638.146.456-.73a5.217,5.217,0,0,0-3.906-1.715,5.041,5.041,0,0,0-5.056,5.385,6.454,6.454,0,0,0,6.461,6.661,5.433,5.433,0,0,0,2.318-.456v-2.938l-2.755.146,1.46-.786h3.869l-.474.456a.425.425,0,0,0-.183.291c-.019.165-.036.694-.036.877v2.228h0Z" transform="translate(-1824.479 -722.413)" fill="#f9f9f9"/>
  <path id="Path_21432" data-name="Path 21432" d="M3760.1,732.555c-.6-.055-.729-.164-.729-.876v-10.33c0-.039.006-.08.01-.118.074-.638.256-.748.823-1.077h-2.611l-1.369.657h1.395v11.269c0,.364-.072.42-.492.967h3.231l.675-.4C3760.72,732.609,3760.409,732.591,3760.1,732.555Zm7.427.168c-.2.109-.4.236-.6.326a4.224,4.224,0,0,1-1.76.345,3.875,3.875,0,0,1-2.411-.707,4.691,4.691,0,0,1-1.848-3.825,4.108,4.108,0,0,1,4.151-4.186,3.521,3.521,0,0,1,1.868.508,3,3,0,0,1,1.267,1.794l-4.258,1.723-1.4.109c.452,2.3,2.011,3.642,3.734,3.642a4.683,4.683,0,0,0,2.211-.633Zm-1.7-5.4c.344-.126.525-.236.525-.489a1.8,1.8,0,0,0-1.795-1.559,2.232,2.232,0,0,0-2.084,2.519c0,.308.037.634.056.962Zm3.453-2.521V726h-.145v-1.2h-.4v-.124h.937v.124Zm1.63,1.2v-1.207h-.006L3770.53,726h-.114l-.372-1.207h0V726h-.132v-1.32h.226l.336,1.067h0l.331-1.067h.229V726Z" transform="translate(-3673.702 -704.339)" fill="#f9f9f9"/>
  <path id="Path_21433" data-name="Path 21433" d="M1870.438,409.072h-.907a5.994,5.994,0,0,0-.258-1.06h-1.31a5.474,5.474,0,0,0-.266,1.06h-.853q0-.111.662-1.814a14.256,14.256,0,0,0,.662-1.876h1.071a15.621,15.621,0,0,0,.6,1.849A16.268,16.268,0,0,1,1870.438,409.072Zm-1.309-1.6a15.972,15.972,0,0,1-.485-1.581h-.045q0,.11-.5,1.581Zm4.964,1.6h-.7a6.916,6.916,0,0,0-.779-1.227,6.748,6.748,0,0,1-.929-1.6h-.045a10,10,0,0,1,.071,1.122q0,.7.04,1.706h-.7q.042-.879.042-1.93,0-1.034-.042-1.76h.841a5.319,5.319,0,0,0,.7,1.2,7.053,7.053,0,0,1,.856,1.511h.043a10.664,10.664,0,0,1-.068-1.134q0-.768-.039-1.576h.708q-.04.7-.04,1.76T1874.093,409.072Zm4.108-1.973a2.091,2.091,0,0,1-.516,1.406,1.8,1.8,0,0,1-1.445.6q-.42,0-1.156-.034.037-.856.037-1.93,0-1.031-.037-1.76h.5q.122,0,.363-.008t.314-.008a1.911,1.911,0,0,1,1.484.51A1.765,1.765,0,0,1,1878.2,407.1Zm-.773.122a1.366,1.366,0,0,0-.318-.917,1.2,1.2,0,0,0-.969-.373,2.957,2.957,0,0,0-.335.026q.028.567.028,1.185,0,.677.028,1.343a1.869,1.869,0,0,0,.368.037,1.07,1.07,0,0,0,.9-.379A1.461,1.461,0,0,0,1877.427,407.221Zm4.561,1.851h-.839a5.582,5.582,0,0,0-.5-1.238.661.661,0,0,0-.567-.235q-.165,0-.314,0,0,.729.026,1.471H1879q.037-.856.037-1.93,0-1.031-.037-1.76h.49q.085,0,.355-.008t.5-.008q1.3,0,1.3.89a1,1,0,0,1-.742.984v.042a.885.885,0,0,1,.5.446A9.819,9.819,0,0,1,1881.988,409.072Zm-1.062-2.607q0-.564-.725-.564a2.49,2.49,0,0,0-.47.04q.031.439.031,1.145c.1,0,.192.006.263.006Q1880.925,407.091,1880.925,406.464Zm5.125.694a2.035,2.035,0,0,1-.533,1.443,1.729,1.729,0,0,1-1.318.573,1.665,1.665,0,0,1-1.253-.526,1.852,1.852,0,0,1-.5-1.336,2.034,2.034,0,0,1,.533-1.443,1.728,1.728,0,0,1,1.318-.572,1.667,1.667,0,0,1,1.253.524A1.85,1.85,0,0,1,1886.05,407.159Zm-.782.082a1.464,1.464,0,0,0-.3-.961.934.934,0,0,0-.748-.368.864.864,0,0,0-.7.371,1.482,1.482,0,0,0-.289.938,1.46,1.46,0,0,0,.3.959.934.934,0,0,0,.747.37.864.864,0,0,0,.7-.373A1.484,1.484,0,0,0,1885.268,407.241Zm2.384,1.831h-.8q.037-.879.037-1.93,0-1.035-.037-1.76h.8q-.037.714-.037,1.76Q1887.616,408.21,1887.653,409.072Zm4.108-1.973a2.091,2.091,0,0,1-.516,1.406,1.8,1.8,0,0,1-1.445.6q-.419,0-1.157-.034.037-.856.037-1.93,0-1.031-.037-1.76h.5q.121,0,.363-.008t.314-.008a1.911,1.911,0,0,1,1.484.51A1.763,1.763,0,0,1,1891.76,407.1Zm-.773.122a1.367,1.367,0,0,0-.317-.917,1.2,1.2,0,0,0-.969-.373,2.96,2.96,0,0,0-.335.026q.028.567.028,1.185,0,.677.028,1.343a1.867,1.867,0,0,0,.368.037,1.07,1.07,0,0,0,.9-.379A1.46,1.46,0,0,0,1890.987,407.221Zm6.223,1.851h-.907a5.975,5.975,0,0,0-.258-1.06h-1.309a5.468,5.468,0,0,0-.266,1.06h-.853q0-.111.661-1.814a14.235,14.235,0,0,0,.662-1.876h1.072a15.639,15.639,0,0,0,.6,1.849A16.286,16.286,0,0,1,1897.21,409.072Zm-1.309-1.6a15.939,15.939,0,0,1-.485-1.581h-.045q0,.11-.5,1.581Zm4.615-1.122a1.1,1.1,0,0,1-.5,1,2.238,2.238,0,0,1-1.234.323c-.089,0-.152,0-.19-.006q0,.533.031,1.406h-.8q.037-.819.037-1.93,0-1.02-.037-1.76h.493q.105,0,.4-.008t.516-.008a1.621,1.621,0,0,1,.91.244A.824.824,0,0,1,1900.516,406.348Zm-.731.156q0-.606-.8-.607a2.283,2.283,0,0,0-.425.042q.031.536.031,1.213c.047,0,.1.006.164.006Q1899.785,407.159,1899.785,406.5Zm4.13-.156a1.1,1.1,0,0,1-.5,1,2.24,2.24,0,0,1-1.234.323c-.089,0-.152,0-.19-.006q0,.533.031,1.406h-.8q.037-.819.037-1.93,0-1.02-.037-1.76h.493c.07,0,.2,0,.4-.008s.37-.008.516-.008a1.622,1.622,0,0,1,.91.244A.824.824,0,0,1,1903.915,406.348Zm-.731.156q0-.606-.8-.607a2.279,2.279,0,0,0-.425.042q.031.536.031,1.213c.047,0,.1.006.164.006Q1903.184,407.159,1903.184,406.5Zm6.289.655a2.035,2.035,0,0,1-.533,1.443,1.728,1.728,0,0,1-1.318.573,1.665,1.665,0,0,1-1.253-.526,1.852,1.852,0,0,1-.5-1.336,2.036,2.036,0,0,1,.533-1.443,1.729,1.729,0,0,1,1.318-.572,1.668,1.668,0,0,1,1.253.524A1.851,1.851,0,0,1,1909.473,407.159Zm-.782.082a1.465,1.465,0,0,0-.3-.961.934.934,0,0,0-.748-.368.864.864,0,0,0-.7.371,1.482,1.482,0,0,0-.289.938,1.461,1.461,0,0,0,.3.959.934.934,0,0,0,.747.37.863.863,0,0,0,.7-.373A1.482,1.482,0,0,0,1908.69,407.241Zm4.624,1.831h-.7a6.9,6.9,0,0,0-.779-1.227,6.757,6.757,0,0,1-.929-1.6h-.045a9.949,9.949,0,0,1,.071,1.122q0,.7.04,1.706h-.7q.042-.879.042-1.93,0-1.034-.042-1.76h.841a5.347,5.347,0,0,0,.7,1.2,7.045,7.045,0,0,1,.856,1.511h.042a10.688,10.688,0,0,1-.068-1.134q0-.768-.04-1.576h.709q-.04.7-.04,1.76T1913.314,409.072Z" transform="translate(-1825.863 -396.404)" fill="#f9f9fa"/>
</svg>
