<svg id="download-on-the-app-store-apple-logo-svgrepo-com" xmlns="http://www.w3.org/2000/svg" xmlns:xlink="http://www.w3.org/1999/xlink" width="148.977" height="44.142" viewBox="0 0 148.977 44.142">
  <defs>
    <linearGradient id="linear-gradient" x1="-1.199" y1="2.436" x2="-1.199" y2="1.535" gradientUnits="objectBoundingBox">
      <stop offset="0" stop-color="#1a1a1a" stop-opacity="0.102"/>
      <stop offset="0.123" stop-color="#212121" stop-opacity="0.153"/>
      <stop offset="0.308" stop-color="#353535" stop-opacity="0.227"/>
      <stop offset="0.532" stop-color="#575757" stop-opacity="0.318"/>
      <stop offset="0.783" stop-color="#858585" stop-opacity="0.42"/>
      <stop offset="1" stop-color="#b3b3b3" stop-opacity="0.51"/>
    </linearGradient>
  </defs>
  <path id="Path_21415" data-name="Path 21415" d="M150.568,41.509a4.228,4.228,0,0,1-4.233,4.228H7.8a4.234,4.234,0,0,1-4.239-4.228V7.794A4.239,4.239,0,0,1,7.8,3.561H146.334a4.233,4.233,0,0,1,4.233,4.233V41.509Z" transform="translate(-2.579 -2.579)" fill="#fff"/>
  <path id="Path_21416" data-name="Path 21416" d="M143.755,44.141H5.221A5.222,5.222,0,0,1,0,38.931V5.217A5.225,5.225,0,0,1,5.221,0H143.754a5.227,5.227,0,0,1,5.221,5.217V38.93a5.221,5.221,0,0,1-5.22,5.211Z" transform="translate(0 0)" fill="#a6a6a6"/>
  <path id="Path_21417" data-name="Path 21417" d="M150.568,41.509a4.228,4.228,0,0,1-4.233,4.228H7.8a4.234,4.234,0,0,1-4.239-4.228V7.794A4.239,4.239,0,0,1,7.8,3.561H146.334a4.233,4.233,0,0,1,4.233,4.233V41.509Z" transform="translate(-2.579 -2.579)"/>
  <path id="Path_21418" data-name="Path 21418" d="M70.337,39.851a6.4,6.4,0,0,1,3.048-5.369,6.556,6.556,0,0,0-5.163-2.791c-2.172-.228-4.278,1.3-5.385,1.3-1.128,0-2.832-1.277-4.668-1.24a6.874,6.874,0,0,0-5.786,3.528c-2.5,4.33-.636,10.694,1.761,14.194,1.2,1.715,2.6,3.628,4.434,3.561,1.794-.073,2.464-1.142,4.63-1.142,2.145,0,2.775,1.142,4.645,1.1,1.926-.03,3.138-1.722,4.3-3.452a14.148,14.148,0,0,0,1.964-4,6.191,6.191,0,0,1-3.776-5.689ZM66.8,29.388a6.3,6.3,0,0,0,1.442-4.514A6.418,6.418,0,0,0,64.1,27.021a5.993,5.993,0,0,0-1.48,4.347A5.3,5.3,0,0,0,66.8,29.388Z" transform="translate(-37.071 -18.012)" fill="#fff"/>
  <path id="Path_21419" data-name="Path 21419" d="M326.311,0h-74.2l29.064,44.141h45.139a5.225,5.225,0,0,0,5.221-5.215V5.217A5.226,5.226,0,0,0,326.311,0Z" transform="translate(-182.556 0)" fill="url(#linear-gradient)"/>
  <g id="Group_11346" data-name="Group 11346" transform="translate(46.848 19.868)">
    <path id="Path_21420" data-name="Path 21420" d="M182.217,86.923h-2.507l-1.374-4.315h-4.774l-1.308,4.315h-2.441l4.731-14.69h2.922Zm-4.3-6.125-1.242-3.836q-.2-.588-.741-2.767h-.044q-.219.937-.7,2.767L173.975,80.8Zm16.438.7a6,6,0,0,1-1.468,4.271,4.306,4.306,0,0,1-3.266,1.4,3.27,3.27,0,0,1-3.025-1.5v5.558h-2.354V79.812q0-1.7-.087-3.482h2.07l.131,1.679h.044a4.188,4.188,0,0,1,6.7-.416A5.856,5.856,0,0,1,194.36,81.5Zm-2.4.086a4.366,4.366,0,0,0-.7-2.551,2.412,2.412,0,0,0-2.049-1.045,2.448,2.448,0,0,0-1.58.577,2.678,2.678,0,0,0-.926,1.516,3.073,3.073,0,0,0-.109.716v1.767a2.834,2.834,0,0,0,.709,1.952,2.353,2.353,0,0,0,1.842.8,2.413,2.413,0,0,0,2.07-1.024A4.507,4.507,0,0,0,191.962,81.583Zm14.584-.086a6,6,0,0,1-1.468,4.271,4.309,4.309,0,0,1-3.267,1.4,3.27,3.27,0,0,1-3.025-1.5v5.558h-2.354V79.812q0-1.7-.087-3.482h2.07l.131,1.679h.044a4.189,4.189,0,0,1,6.7-.416A5.862,5.862,0,0,1,206.546,81.5Zm-2.4.086a4.366,4.366,0,0,0-.7-2.551,2.408,2.408,0,0,0-2.047-1.045,2.458,2.458,0,0,0-1.582.577,2.676,2.676,0,0,0-.925,1.516,3.143,3.143,0,0,0-.11.716v1.767a2.843,2.843,0,0,0,.708,1.952,2.358,2.358,0,0,0,1.844.8,2.41,2.41,0,0,0,2.07-1.024A4.508,4.508,0,0,0,204.147,81.583Zm16.024,1.22a3.924,3.924,0,0,1-1.306,3.052,5.79,5.79,0,0,1-4,1.286,6.988,6.988,0,0,1-3.8-.915l.544-1.962a6.55,6.55,0,0,0,3.4.916,3.209,3.209,0,0,0,2.07-.6,1.958,1.958,0,0,0,.743-1.6,2.051,2.051,0,0,0-.612-1.5,5.671,5.671,0,0,0-2.027-1.133q-3.859-1.439-3.86-4.208a3.715,3.715,0,0,1,1.362-2.964,5.389,5.389,0,0,1,3.608-1.156,7.132,7.132,0,0,1,3.336.7l-.591,1.918a5.833,5.833,0,0,0-2.823-.676,2.872,2.872,0,0,0-1.948.61,1.747,1.747,0,0,0-.591,1.331,1.8,1.8,0,0,0,.677,1.438,7.626,7.626,0,0,0,2.135,1.133,7.239,7.239,0,0,1,2.79,1.786,3.722,3.722,0,0,1,.9,2.548Zm7.8-4.706h-2.595V83.24q0,1.962,1.374,1.96a4.136,4.136,0,0,0,1.046-.109l.065,1.787a5.335,5.335,0,0,1-1.831.261,2.822,2.822,0,0,1-2.181-.851,4.173,4.173,0,0,1-.785-2.856V78.092h-1.546V76.326h1.546V74.387l2.312-.7v2.637h2.595Zm11.684,3.443a5.81,5.81,0,0,1-1.4,4.01,4.975,4.975,0,0,1-3.88,1.613,4.743,4.743,0,0,1-3.718-1.545,5.634,5.634,0,0,1-1.385-3.9,5.763,5.763,0,0,1,1.428-4.031,4.95,4.95,0,0,1,3.849-1.57,4.842,4.842,0,0,1,3.749,1.548A5.56,5.56,0,0,1,239.658,81.54Zm-2.44.054a4.742,4.742,0,0,0-.63-2.5,2.33,2.33,0,0,0-2.116-1.262,2.364,2.364,0,0,0-2.159,1.262,4.82,4.82,0,0,0-.632,2.543,4.728,4.728,0,0,0,.632,2.5,2.414,2.414,0,0,0,4.254-.021,4.761,4.761,0,0,0,.65-2.523Zm10.1-3.193a4.1,4.1,0,0,0-.742-.065,2.222,2.222,0,0,0-1.919.938,3.533,3.533,0,0,0-.587,2.092v5.558H241.71V79.667q0-1.668-.068-3.335h2.05l.086,2.027h.065a3.634,3.634,0,0,1,1.177-1.679,2.847,2.847,0,0,1,1.7-.567,3.781,3.781,0,0,1,.589.043Zm10.528,2.725a5.518,5.518,0,0,1-.086,1.067h-7.062a3.072,3.072,0,0,0,1.025,2.4,3.5,3.5,0,0,0,2.31.74,7.812,7.812,0,0,0,2.857-.5l.369,1.633a8.836,8.836,0,0,1-3.552.655,5.15,5.15,0,0,1-3.871-1.448,5.354,5.354,0,0,1-1.406-3.89,6.066,6.066,0,0,1,1.31-3.987,4.512,4.512,0,0,1,3.7-1.7,3.949,3.949,0,0,1,3.468,1.7A5.716,5.716,0,0,1,257.841,81.126Zm-2.245-.61a3.186,3.186,0,0,0-.457-1.809,2.056,2.056,0,0,0-1.875-.982,2.232,2.232,0,0,0-1.874.959,3.515,3.515,0,0,0-.7,1.83Z" transform="translate(-169.812 -72.016)" fill="#fff"/>
  </g>
  <g id="Group_11347" data-name="Group 11347" transform="translate(48.226 7.233)">
    <path id="Path_21421" data-name="Path 21421" d="M176.5,33.878a15.036,15.036,0,0,1-1.693-.086v-7.1a12.818,12.818,0,0,1,1.993-.15c2.7,0,3.943,1.328,3.943,3.493C180.742,32.529,179.274,33.878,176.5,33.878Zm.4-6.428a4.724,4.724,0,0,0-.932.075v5.4a6.111,6.111,0,0,0,.782.032,2.558,2.558,0,0,0,2.776-2.892A2.356,2.356,0,0,0,176.894,27.45Zm7.722,6.482a2.478,2.478,0,0,1-2.507-2.678A2.536,2.536,0,0,1,184.7,28.5a2.458,2.458,0,0,1,2.507,2.668A2.551,2.551,0,0,1,184.617,33.932Zm.044-4.585c-.836,0-1.371.782-1.371,1.874,0,1.072.547,1.853,1.36,1.853s1.36-.836,1.36-1.875c0-1.06-.535-1.852-1.349-1.852Zm11.226-.738-1.629,5.206H193.2l-.675-2.261a17.138,17.138,0,0,1-.418-1.681h-.022a11.267,11.267,0,0,1-.417,1.681l-.718,2.261h-1.072l-1.533-5.206h1.189l.59,2.475q.209.884.353,1.671h.022c.085-.438.224-.986.428-1.66l.74-2.485h.943l.708,2.432c.171.589.31,1.168.419,1.714h.031a14.982,14.982,0,0,1,.353-1.714l.633-2.432h1.136Zm6,5.206h-1.157V30.824c0-.921-.353-1.382-1.05-1.382a1.2,1.2,0,0,0-1.157,1.275v3.1H197.36V30.1c0-.46-.011-.954-.043-1.489h1.018l.054.8h.032a1.871,1.871,0,0,1,1.651-.91c1.093,0,1.811.836,1.811,2.2v3.117Zm3.191,0h-1.158V26.219h1.158Zm4.219.118a2.479,2.479,0,0,1-2.507-2.678,2.535,2.535,0,0,1,2.592-2.753,2.458,2.458,0,0,1,2.507,2.668A2.55,2.55,0,0,1,209.292,33.932Zm.043-4.585c-.836,0-1.371.782-1.371,1.874,0,1.072.548,1.853,1.359,1.853s1.36-.836,1.36-1.875C210.684,30.139,210.15,29.346,209.335,29.346Zm7.112,4.467-.084-.6h-.031a1.778,1.778,0,0,1-1.523.717,1.514,1.514,0,0,1-1.6-1.532c0-1.285,1.114-1.949,3.043-1.949v-.1c0-.685-.363-1.029-1.081-1.029a2.437,2.437,0,0,0-1.36.386l-.235-.761a3.329,3.329,0,0,1,1.788-.45c1.36,0,2.047.717,2.047,2.154v1.917a7.859,7.859,0,0,0,.075,1.243Zm-.159-2.593c-1.285,0-1.93.311-1.93,1.05a.738.738,0,0,0,.794.814,1.108,1.108,0,0,0,1.136-1.06Zm6.746,2.593-.054-.836h-.032a1.746,1.746,0,0,1-1.672.954c-1.255,0-2.185-1.1-2.185-2.657,0-1.628.964-2.775,2.28-2.775a1.565,1.565,0,0,1,1.468.708h.023V26.219h1.158v6.191c0,.5.012.975.043,1.4h-1.03Zm-.171-3.063a1.259,1.259,0,0,0-1.219-1.35c-.858,0-1.382.761-1.382,1.831,0,1.05.544,1.768,1.359,1.768a1.3,1.3,0,0,0,1.242-1.382V30.75Zm8.5,3.181a2.478,2.478,0,0,1-2.506-2.678A2.535,2.535,0,0,1,231.45,28.5a2.458,2.458,0,0,1,2.507,2.668A2.55,2.55,0,0,1,231.364,33.932Zm.043-4.585c-.835,0-1.37.782-1.37,1.874,0,1.072.547,1.853,1.359,1.853s1.36-.836,1.36-1.875C232.759,30.139,232.223,29.346,231.407,29.346Zm8.773,4.467h-1.158V30.824c0-.921-.353-1.382-1.05-1.382a1.2,1.2,0,0,0-1.156,1.275v3.1h-1.158V30.1c0-.46-.011-.954-.043-1.489h1.018l.054.8h.032a1.87,1.87,0,0,1,1.65-.911c1.093,0,1.812.836,1.812,2.2Zm7.785-4.338h-1.273V32c0,.644.223.965.674.965a2.279,2.279,0,0,0,.513-.054l.032.879a2.564,2.564,0,0,1-.9.129c-.912,0-1.457-.5-1.457-1.821V29.476h-.76v-.868h.76v-.954l1.136-.343v1.3h1.273Zm6.126,4.338h-1.156V30.847c0-.932-.352-1.4-1.05-1.4a1.135,1.135,0,0,0-1.158,1.232v3.138h-1.156V26.219h1.156v3.127h.023a1.756,1.756,0,0,1,1.566-.847c1.1,0,1.775.857,1.775,2.218Zm6.276-2.325H256.9a1.494,1.494,0,0,0,1.641,1.542,3.911,3.911,0,0,0,1.4-.246l.18.8a4.348,4.348,0,0,1-1.747.321,2.417,2.417,0,0,1-2.592-2.624,2.543,2.543,0,0,1,2.462-2.8,2.187,2.187,0,0,1,2.165,2.475,2.229,2.229,0,0,1-.04.524Zm-1.061-.825c0-.8-.405-1.371-1.145-1.371a1.372,1.372,0,0,0-1.265,1.371h2.41Z" transform="translate(-174.806 -26.219)" fill="#fff"/>
  </g>
</svg>
