<svg id="aster_hospital_logo" xmlns="http://www.w3.org/2000/svg" width="86.782" height="43.086" viewBox="0 0 86.782 43.086">
  <g id="Group_11285" data-name="Group 11285" transform="translate(0 38.027)">
    <path id="Path_21327" data-name="Path 21327" d="M.434,165.36l.869,4.419h.229l1.01-4.365h.5l1,4.365h.226l.871-4.419h.434l-.987,4.8H3.737l-.948-4.213-.945,4.213H.987L0,165.36Z" transform="translate(0 -165.173)" fill="#58595b"/>
    <path id="Path_21328" data-name="Path 21328" d="M28.439,172.5c0-.931-.3-1.264-.945-1.264-.629,0-1,.344-1,1.264Zm.277,1.534.014.337s-.781.1-1.32.1c-1.028-.007-1.34-.629-1.34-1.782,0-1.333.58-1.81,1.424-1.81.89,0,1.359.476,1.359,1.636l-.014.33H26.493c0,.816.233,1.25.959,1.25.5,0,1.264-.06,1.264-.06" transform="translate(-20.045 -169.417)" fill="#58595b"/>
    <path id="Path_21329" data-name="Path 21329" d="M41.179,164.79h.441l-.4,1.456h-.33Z" transform="translate(-31.44 -164.735)" fill="#58595b"/>
    <rect id="Rectangle_3168" data-name="Rectangle 3168" width="0.407" height="4.985" transform="translate(11.042)" fill="#58595b"/>
    <rect id="Rectangle_3169" data-name="Rectangle 3169" width="0.407" height="4.985" transform="translate(12.567)" fill="#58595b"/>
    <path id="Path_21330" data-name="Path 21330" d="M65.52,165.36h3.453v.386h-1.5v4.412h-.428v-4.412H65.52Z" transform="translate(-50.378 -165.173)" fill="#58595b"/>
    <path id="Path_21331" data-name="Path 21331" d="M80.28,170.949h.407v.5a3.7,3.7,0,0,1,1.306-.566v.414a5,5,0,0,0-1.306.518V174.4H80.28Z" transform="translate(-61.727 -169.417)" fill="#58595b"/>
    <path id="Path_21332" data-name="Path 21332" d="M91.721,172.5c0-.931-.3-1.264-.945-1.264-.629,0-1,.344-1,1.264ZM92,174.037l.012.337s-.779.1-1.317.1c-1.028-.007-1.34-.629-1.34-1.782,0-1.333.58-1.81,1.424-1.81.892,0,1.359.476,1.359,1.636l-.014.33H89.773c0,.816.233,1.25.959,1.25.506,0,1.264-.06,1.264-.06" transform="translate(-68.701 -169.417)" fill="#58595b"/>
    <path id="Path_21333" data-name="Path 21333" d="M105.165,172.737a.6.6,0,0,0-.636.677c0,.441.194.7.573.7a3.9,3.9,0,0,0,1.188-.243v-1.25Zm1.532,1.084c.021.208.222.277.448.3l-.021.333a.973.973,0,0,1-.781-.277,3.759,3.759,0,0,1-1.3.282c-.608,0-.945-.351-.945-1.042,0-.633.319-.938,1.017-1.008l1.174-.118v-.324c0-.525-.233-.726-.677-.726-.5,0-1.3.1-1.3.1l-.021-.33a8.692,8.692,0,0,1,1.34-.146c.753,0,1.07.365,1.07,1.1v1.853Z" transform="translate(-80.043 -169.409)" fill="#58595b"/>
    <path id="Path_21334" data-name="Path 21334" d="M119.457,167.931v1.705c0,.862.055,1.084.552,1.084.194,0,.635-.049.635-.049l.028.351a6.386,6.386,0,0,1-.7.069c-.684,0-.934-.257-.934-1.25v-1.913h-.511v-.365h.511V166.48h.414v1.084h1.153v.365h-1.151Z" transform="translate(-91.138 -166.034)" fill="#58595b"/>
    <path id="Path_21335" data-name="Path 21335" d="M137.019,170.158h-.43v-2.029l-1.539-2.769h.476l1.278,2.327,1.271-2.327h.483l-1.539,2.769Z" transform="translate(-103.84 -165.173)" fill="#58595b"/>
    <path id="Path_21336" data-name="Path 21336" d="M152.573,172.627c0-1.035-.236-1.382-1.024-1.382s-1.021.347-1.021,1.382c0,1.056.125,1.479,1.021,1.479s1.024-.423,1.024-1.479m.421,0c0,1.306-.289,1.844-1.444,1.844s-1.449-.538-1.449-1.844c0-1.222.379-1.747,1.449-1.747s1.444.525,1.444,1.747" transform="translate(-115.412 -169.417)" fill="#58595b"/>
    <path id="Path_21337" data-name="Path 21337" d="M168.935,171.172v3.453h-.409v-.257a2.371,2.371,0,0,1-1.063.326c-.959,0-1.153-.427-1.153-1.719v-1.8h.407v1.8c0,1.028.1,1.352.795,1.352a2.162,2.162,0,0,0,1.014-.291V171.17h.409Z" transform="translate(-127.876 -169.64)" fill="#58595b"/>
    <path id="Path_21338" data-name="Path 21338" d="M187.9,165.36l.869,4.419h.229L190,165.413h.5l1,4.365h.229l.871-4.419h.434l-.989,4.8H191.2l-.947-4.213-.945,4.213h-.855l-.989-4.8Z" transform="translate(-144.138 -165.173)" fill="#58595b"/>
    <path id="Path_21339" data-name="Path 21339" d="M215.9,172.5c0-.931-.3-1.264-.945-1.264-.629,0-1,.344-1,1.264Zm.275,1.534.014.337s-.781.1-1.32.1c-1.028-.007-1.34-.629-1.34-1.782,0-1.333.58-1.81,1.424-1.81.89,0,1.359.476,1.359,1.636l-.014.33h-2.348c0,.816.233,1.25.959,1.25.508,0,1.266-.06,1.266-.06" transform="translate(-164.183 -169.417)" fill="#58595b"/>
    <rect id="Rectangle_3170" data-name="Rectangle 3170" width="0.407" height="4.985" transform="translate(53.021)" fill="#58595b"/>
    <rect id="Rectangle_3171" data-name="Rectangle 3171" width="0.407" height="4.985" transform="translate(54.546)" fill="#58595b"/>
  </g>
  <g id="Group_11286" data-name="Group 11286">
    <path id="Path_21340" data-name="Path 21340" d="M0,18.083,6.364,0h4.419l6.395,18.083v1.125H13.034l-1.592-4.885H4.966L3.43,19.209H0Zm5.872-6.695h4.61L8.179,4.31H8.123Z" fill="#164d92"/>
    <path id="Path_21341" data-name="Path 21341" d="M77.331,33.616V30.654h1.262a5.241,5.241,0,0,0,3.54,1.206c1.62,0,2.468-.439,2.468-1.345,0-.878-.52-1.29-2.551-1.537-3.157-.384-4.83-1.565-4.83-4.391,0-2.91,2.168-4.527,5.708-4.527a9.4,9.4,0,0,1,4.527.987v2.91H86.247a5.6,5.6,0,0,0-3.293-.961c-1.565,0-2.168.467-2.168,1.29,0,.74.714,1.125,2.69,1.373,3.43.439,4.858,1.565,4.858,4.474,0,2.826-1.84,4.664-6.009,4.664A9.7,9.7,0,0,1,77.331,33.616Z" transform="translate(-59.375 -15.424)" fill="#164d92"/>
    <path id="Path_21342" data-name="Path 21342" d="M126.11,8h1.7V4.16h4.007V8h2.907v2.69h-2.907v7.381c0,1.373.548,1.756,1.865,1.756h1.1v2.413a7.987,7.987,0,0,1-2.524.384c-2.771,0-4.444-1.1-4.444-4.088V10.691h-1.7V8Z" transform="translate(-96.966 -3.199)" fill="#164d92"/>
    <path id="Path_21343" data-name="Path 21343" d="M168.358,28.143c.192,2.882,1.565,3.677,3.785,3.677a6.317,6.317,0,0,0,3.815-1.206h1.234v2.635a10.522,10.522,0,0,1-5.653,1.4c-4.719,0-7.3-2.8-7.3-7.326,0-4.638,3.018-7.49,7.025-7.49,4.225,0,6.475,2.332,6.475,7.079,0,.495-.055,1.1-.055,1.234Zm.055-2.413h5.378c-.083-2.551-.961-3.374-2.526-3.374C169.867,22.354,168.714,23.04,168.414,25.73Z" transform="translate(-126.284 -15.247)" fill="#164d92"/>
    <path id="Path_21344" data-name="Path 21344" d="M233.885,24.326v10.4h-4V20.319H232.6c.686,0,1.1.3,1.234,1.729a5.456,5.456,0,0,1,4.007-1.867,3.074,3.074,0,0,1,.878.139v3.154h-.686A9.044,9.044,0,0,0,233.885,24.326Z" transform="translate(-176.755 -15.516)" fill="#164d92"/>
  </g>
  <g id="Group_11287" data-name="Group 11287" transform="translate(0 23.948)">
    <path id="Path_21345" data-name="Path 21345" d="M55.82,108.464a6.814,6.814,0,0,1,.4-2.336,3.746,3.746,0,0,1,2.8-2.3,7.841,7.841,0,0,1,3.566.007,3.891,3.891,0,0,1,3.115,3.73,7.821,7.821,0,0,1-.111,2.41,3.723,3.723,0,0,1-2.889,3,7.463,7.463,0,0,1-3.841-.009,3.849,3.849,0,0,1-2.977-3.614C55.852,109.035,55.838,108.713,55.82,108.464Zm7.317.3c-.016-.324-.023-.728-.06-1.13a1.784,1.784,0,0,0-1.6-1.8,6.783,6.783,0,0,0-2.1.007c-.594.086-.813.374-.862,1.033a14.586,14.586,0,0,0,0,2.313,1.8,1.8,0,0,0,1.715,1.846A6.633,6.633,0,0,0,62.321,111a.8.8,0,0,0,.7-.666A10.968,10.968,0,0,0,63.137,108.764Z" transform="translate(-42.92 -103.626)" fill="#00b48d" fill-rule="evenodd"/>
    <path id="Path_21346" data-name="Path 21346" d="M8.846,109.238c0,1.283,0,2.565,0,3.852,0,.222-.049.319-.291.307-.356-.021-.716,0-1.07-.012-.908-.028-1.253-.363-1.269-1.262-.014-.7-.021-1.4,0-2.1.007-.284-.074-.367-.358-.361-.964.018-1.927.021-2.889,0-.293-.007-.354.095-.349.363.016,1.01,0,2.022.009,3.032.007.263-.065.356-.337.342a9.533,9.533,0,0,1-1.384-.088.91.91,0,0,1-.844-.867,4.409,4.409,0,0,1-.058-.675C0,109.3.009,106.844,0,104.385c0-.27.051-.379.349-.367a12.522,12.522,0,0,1,1.315.086.935.935,0,0,1,.92.917,15.778,15.778,0,0,1,.039,2.242c0,.268.074.342.34.337.975-.016,1.948-.018,2.923,0,.277,0,.337-.086.333-.347-.016-.975,0-1.948-.012-2.923,0-.224.053-.317.3-.31a10.293,10.293,0,0,1,1.387.083.934.934,0,0,1,.9.892,4.745,4.745,0,0,1,.055.675C8.849,106.862,8.846,108.048,8.846,109.238Z" transform="translate(0 -103.926)" fill="#00b48d" fill-rule="evenodd"/>
    <path id="Path_21347" data-name="Path 21347" d="M293.4,111.756c-.545,0-1.093.009-1.643,0a.341.341,0,0,0-.374.233c-.6,1.359-.784,1.47-2.265,1.43-.261-.007-.522-.021-.783-.012-.224.007-.266-.044-.173-.261.495-1.158.971-2.32,1.454-3.48.626-1.5,1.269-3,1.867-4.5a1.535,1.535,0,0,1,1.678-1.123,9.942,9.942,0,0,0,1.285,0,.455.455,0,0,1,.52.342q1.643,3.907,3.307,7.8c.134.317.261.638.409.95.1.2.09.291-.173.282-.464-.021-.927-.012-1.394-.012a1.483,1.483,0,0,1-1.525-1.047c-.224-.6-.24-.592-.871-.592Zm.014-5.015c-.39,1-.746,1.927-1.1,2.852-.044.113-.028.173.113.173.712,0,1.417,0,2.175,0C294.2,108.754,293.824,107.791,293.41,106.741Z" transform="translate(-221.529 -103.937)" fill="#00b48d" fill-rule="evenodd"/>
    <path id="Path_21348" data-name="Path 21348" d="M166.87,108.706c0-1.061-.007-2.117,0-3.175.012-1.144.226-1.407,1.363-1.435a17.207,17.207,0,0,1,4.543.213c1.955.483,2.528,1.754,2.334,3.5-.173,1.544-1.125,2.366-2.836,2.593a15.065,15.065,0,0,1-2.35.081c-.344-.007-.478.065-.46.444.035.712,0,1.428.019,2.14.007.289-.092.37-.367.349-.367-.028-.737,0-1.1-.037-.793-.074-1.112-.391-1.128-1.183-.021-1.165-.007-2.332-.007-3.494A.014.014,0,0,1,166.87,108.706Zm3.869-.289h0c.227,0,.451,0,.677,0,.994-.016,1.1-.122,1.089-1.116a.906.906,0,0,0-.881-1.042,13.458,13.458,0,0,0-1.953-.067c-.173-.007-.2.086-.2.222,0,.594.007,1.19,0,1.784,0,.171.062.229.231.224C170.047,108.415,170.392,108.417,170.738,108.417Z" transform="translate(-128.304 -103.951)" fill="#00b48d" fill-rule="evenodd"/>
    <path id="Path_21349" data-name="Path 21349" d="M117.067,113.411c-.85,0-1.539-.012-2.228,0-.294.009-.379-.095-.344-.37a10.319,10.319,0,0,1,.1-1.028.881.881,0,0,1,.746-.714,4.022,4.022,0,0,1,.816-.065c.869,0,1.738,0,2.6-.007a3.17,3.17,0,0,0,.534-.03c.233-.035.5-.06.532-.374s.051-.649-.284-.853a2.8,2.8,0,0,0-.975-.317,17.485,17.485,0,0,1-2.6-.587,2.411,2.411,0,0,1-1.652-1.352,2.614,2.614,0,0,1,1.246-3.1,5.18,5.18,0,0,1,2.4-.585c1.283-.03,2.57,0,3.852-.019.238,0,.326.069.3.3s-.032.474-.055.712c-.081.82-.386,1.116-1.211,1.128-.941.016-1.879.007-2.817.016-.226,0-.451.018-.677.028-.305.012-.525.109-.564.46-.046.428.053.666.418.8a9.778,9.778,0,0,0,1.525.344,10.127,10.127,0,0,1,2.42.709,2.322,2.322,0,0,1,.453,3.869,4.346,4.346,0,0,1-2.551.971A17.618,17.618,0,0,1,117.067,113.411Z" transform="translate(-87.784 -103.921)" fill="#00b48d" fill-rule="evenodd"/>
    <path id="Path_21350" data-name="Path 21350" d="M249.906,109.544c0-1.123-.009-2.05,0-2.977,0-.252-.076-.324-.321-.317-.7.016-1.405,0-2.108.009-.24,0-.3-.079-.294-.307a6.786,6.786,0,0,1,.1-1.063.772.772,0,0,1,.767-.712,8.094,8.094,0,0,1,.818-.049c1.974,0,3.949,0,5.923-.009.294,0,.414.072.37.372-.035.224-.035.451-.055.675-.065.758-.37,1.051-1.139,1.077a8.7,8.7,0,0,1-1.07,0c-.335-.025-.444.065-.439.421.018,2.128,0,4.257.018,6.385,0,.354-.1.448-.434.421a10.409,10.409,0,0,1-1.283-.092.884.884,0,0,1-.8-.827C249.825,111.492,249.948,110.42,249.906,109.544Z" transform="translate(-190.063 -104.006)" fill="#00b48d" fill-rule="evenodd"/>
    <path id="Path_21351" data-name="Path 21351" d="M348.776,108.239c0-1.259.012-2.521-.007-3.783-.007-.3.092-.381.381-.37.4.016.807.007,1.211.06.663.088.957.37.975,1.045.025,1.045.021,2.091.025,3.138,0,.88.014,1.761-.007,2.641-.007.3.062.4.388.4a13.087,13.087,0,0,1,2.311.055c.647.111.86.361.848,1.005,0,.328.148.753-.067.959-.194.187-.612.051-.931.053-1.165.007-2.33,0-3.5,0a5.93,5.93,0,0,1-.64-.028.927.927,0,0,1-.927-.862,6.807,6.807,0,0,1-.065-1.283Z" transform="translate(-268.168 -103.979)" fill="#00b48d" fill-rule="evenodd"/>
    <path id="Path_21352" data-name="Path 21352" d="M220.277,108.647c0-1.567.007-2.875-.007-4.181,0-.266.067-.37.34-.347.4.035.809.03,1.211.072a1.011,1.011,0,0,1,1.063,1.16c.014,1.176.007,2.353.009,3.531,0,1.391-.014,2.785.009,4.171.007.361-.106.446-.439.418a11.785,11.785,0,0,1-1.209-.076.97.97,0,0,1-.943-1.049C220.228,111.027,220.3,109.708,220.277,108.647Z" transform="translate(-169.366 -104.003)" fill="#00b48d" fill-rule="evenodd"/>
  </g>
</svg>
