<svg xmlns="http://www.w3.org/2000/svg" xmlns:xlink="http://www.w3.org/1999/xlink" width="94" height="43" viewBox="0 0 94 43">
  <defs>
    <clipPath id="clip-path">
      <rect id="Rectangle_3177" data-name="Rectangle 3177" width="90.427" height="42.375"/>
    </clipPath>
  </defs>
  <g id="aster-pharmacy-logo" transform="translate(0.178 0.404)">
    <rect id="Rectangle_3176" data-name="Rectangle 3176" width="94" height="43" transform="translate(-0.178 -0.404)" fill="#fff"/>
    <g id="Group_11289" data-name="Group 11289" transform="translate(1.183 0.221)">
      <g id="Group_11288" data-name="Group 11288" clip-path="url(#clip-path)">
        <path id="Path_21353" data-name="Path 21353" d="M5.838,35.636H4.479v2.8c-2.079,0-2.479,0-2.479-1.6V31c0-1.6.4-1.6,2-1.6H5.678c3.758,0,4.238,1.679,4.238,3.118.08,1.439-.24,3.118-4.078,3.118Zm-.08-4.158H4.479v2.159H5.758c1.039,0,1.6-.4,1.6-1.119,0-.48,0-1.119-1.6-1.039Z" transform="translate(-2 -5.894)" fill="#00a984"/>
        <path id="Path_21354" data-name="Path 21354" d="M22.336,38.495c-1.119-.08-1.119-.8-1.119-1.6v-2H17.779v3.6c-2.159,0-2.479-.08-2.479-1.6V29.38c2.159,0,2.479.08,2.479,1.519v1.839h3.438V29.3c2.159,0,2.559.08,2.559,1.519v7.516a8.837,8.837,0,0,0-1.439.16Z" transform="translate(-4.666 -5.874)" fill="#00a984"/>
        <path id="Path_21355" data-name="Path 21355" d="M37.815,38.555c-1.2-.08-1.279-.72-1.679-1.519H32.378c-.72,1.839-.879,1.6-3.278,1.6L32.378,30.8c.4-1.039.64-1.2,1.919-1.2h1.359l3.838,9.115a10.567,10.567,0,0,0-1.679-.16ZM34.3,32.079l-1.119,2.958h2.239L34.3,32.079Z" transform="translate(-7.433 -5.934)" fill="#00a984"/>
        <path id="Path_21356" data-name="Path 21356" d="M51.776,38.555c-1.119,0-1.6-.08-2.239-1.039l-1.679-2.4c-.32-.56-.48-1.679.72-1.679h.56c.72,0,1.039-.32,1.039-.959,0-.4,0-.879-1.6-.879h-1.2v7.036c-2.159,0-2.479,0-2.479-1.6V31.2c0-1.6.48-1.6,2-1.6h1.679c3.758,0,4.238,1.679,4.238,2.958a2.262,2.262,0,0,1-2.479,2.479l3.278,3.6-1.839-.08Z" transform="translate(-10.6 -5.934)" fill="#00a984"/>
        <path id="Path_21357" data-name="Path 21357" d="M68.934,38.534c-1.039-.08-1.039-.72-1.039-1.519V33.258l-1.679,4.078c-.4.879-.56,1.2-1.679,1.2H63.417l-2.239-5.277v5.277c-2.159,0-2.479-.08-2.479-1.519V29.5h1.359c1.359,0,1.839-.08,2.319,1.359l2.159,5.357L66.7,30.859c.48-1.2.64-1.279,2.159-1.279h1.519v9.115H68.934Z" transform="translate(-13.366 -5.914)" fill="#00a984"/>
        <path id="Path_21358" data-name="Path 21358" d="M84.815,38.555c-1.2-.08-1.279-.72-1.679-1.519H79.378c-.72,1.839-.879,1.6-3.278,1.6L79.378,30.8c.4-1.039.64-1.2,1.919-1.2h1.359l3.838,9.115a10.567,10.567,0,0,0-1.679-.16ZM81.3,32.079l-1.119,2.958H82.5l-1.2-2.958Z" transform="translate(-16.855 -5.934)" fill="#00a984"/>
        <path id="Path_21359" data-name="Path 21359" d="M95.437,38.515c-3.758,0-4.637-2.159-4.637-4.557,0-2.319.879-4.557,4.637-4.557H98.4c0,1.439.24,2.079-1.679,2.079H95.437c-2.079,0-2.079,0-2.079,2.479s.4,2.479,2.079,2.479h1.2c1.6,0,1.759.24,1.759,2.079Z" transform="translate(-19.801 -5.894)" fill="#00a984"/>
        <path id="Path_21360" data-name="Path 21360" d="M108.516,35.736v2.8c-.56,0-1.759.08-2.159-.24a1.7,1.7,0,0,1-.4-1.359v-1.2L102.2,29.5a7.952,7.952,0,0,1,2.559.16,1.84,1.84,0,0,1,.879,1.039l1.6,3.038,1.919-3.438a1.446,1.446,0,0,1,1.519-.8h1.679l-3.838,6.236Z" transform="translate(-22.087 -5.914)" fill="#00a984"/>
        <path id="Path_21361" data-name="Path 21361" d="M2,17.75,8.236,0h4.317L18.87,17.75v1.119H14.793l-1.519-4.8H6.8l-1.519,4.8H2Zm5.757-6.556h4.557L10,4.238h-.08L7.757,11.193Z" transform="translate(-2)" fill="#1d4289"/>
        <path id="Path_21362" data-name="Path 21362" d="M24.46,18.972V16.094h1.2a5.283,5.283,0,0,0,3.438,1.2c1.679,0,2.4-.4,2.4-1.359,0-.879-.56-1.279-2.479-1.519C25.9,14.015,24.3,12.9,24.3,10.1s2.159-4.4,5.6-4.4,3.278.4,4.4.959v2.8h-1.2A5.419,5.419,0,0,0,29.9,8.5c-1.439,0-2.159.48-2.159,1.279s.72,1.119,2.638,1.359c3.438.4,4.877,1.519,4.877,4.4,0,2.8-1.839,4.557-5.917,4.557s-3.758-.56-4.877-1.2" transform="translate(-6.47 -1.143)" fill="#1d4289"/>
        <path id="Path_21363" data-name="Path 21363" d="M38.58,4.958h1.679V1.2h3.918V4.958h2.878V7.6H44.177v7.276c0,1.359.56,1.679,1.839,1.679h1.039V18.87a6.358,6.358,0,0,1-2.479.4c-2.718,0-4.4-1.039-4.4-4V7.6H38.5V4.958Z" transform="translate(-9.317 -0.241)" fill="#1d4289"/>
        <path id="Path_21364" data-name="Path 21364" d="M53.778,13.735c.24,2.8,1.519,3.6,3.758,3.6a5.346,5.346,0,0,0,3.758-1.2h1.2v2.558a10.437,10.437,0,0,1-5.6,1.359c-4.637,0-7.2-2.718-7.2-7.2S52.658,5.5,56.576,5.5s6.4,2.319,6.4,6.956-.08,1.039-.08,1.2H53.778Zm.08-2.319h5.277c-.08-2.479-.959-3.278-2.479-3.278-1.439,0-2.479.64-2.8,3.278" transform="translate(-11.562 -1.103)" fill="#1d4289"/>
        <path id="Path_21365" data-name="Path 21365" d="M72.718,9.778V20.012H68.8V5.86h2.638c.72,0,1.039.32,1.2,1.679A5.238,5.238,0,0,1,76.555,5.7c1.759,0,.56,0,.879.16V8.978h-.72a9.784,9.784,0,0,0-4,.8" transform="translate(-15.391 -1.143)" fill="#1d4289"/>
        <path id="Path_21366" data-name="Path 21366" d="M6.317,51.277H6l-.959-4.4h-.48l-1.039,4.4h-.24L2.4,46.8H2l1.039,4.877h.879l.959-4.238.959,4.238h.879L7.6,46.8h-.48Z" transform="translate(-2 -9.382)" fill="#585857"/>
        <path id="Path_21367" data-name="Path 21367" d="M11.039,48.5c-.879,0-1.439.48-1.439,1.839s.32,1.839,1.359,1.839c.56,0,1.359-.08,1.359-.08v-.32s-.8.08-1.279.08c-.72,0-.959-.4-.959-1.279H12.4v-.32c0-1.279-.48-1.759-1.359-1.759ZM10,50.1c0-.879.4-1.279,1.039-1.279S12,49.14,12,50.1Z" transform="translate(-3.524 -9.723)" fill="#585857"/>
        <path id="Path_21368" data-name="Path 21368" d="M13.9,48.139h.4l.4-1.439h-.4Z" transform="translate(-4.386 -9.362)" fill="#585857"/>
        <path id="Path_21369" data-name="Path 21369" d="M16.4,46.6H16v5.037h.4Z" transform="translate(-4.807 -9.342)" fill="#585857"/>
        <path id="Path_21370" data-name="Path 21370" d="M18.2,46.6h-.4v5.037h.4Z" transform="translate(-5.167 -9.342)" fill="#585857"/>
        <path id="Path_21371" data-name="Path 21371" d="M24.538,46.8H21.1v.4h1.519v4.4h.4V47.2h1.519Z" transform="translate(-5.829 -9.382)" fill="#585857"/>
        <path id="Path_21372" data-name="Path 21372" d="M25.8,48.46h-.4V51.9h.4V49.259a4.957,4.957,0,0,1,1.359-.56v-.4a3.2,3.2,0,0,0-1.359.56v-.4Z" transform="translate(-6.691 -9.683)" fill="#585857"/>
        <path id="Path_21373" data-name="Path 21373" d="M29.439,48.5c-.879,0-1.439.48-1.439,1.839s.32,1.839,1.359,1.839c.56,0,1.359-.08,1.359-.08v-.32s-.8.08-1.279.08c-.72,0-.959-.4-.959-1.279H30.8v-.32c0-1.279-.48-1.759-1.359-1.759Zm-.959,1.6c0-.879.4-1.279,1.039-1.279s.959.32.959,1.279Z" transform="translate(-7.212 -9.723)" fill="#585857"/>
        <path id="Path_21374" data-name="Path 21374" d="M34.959,51.358V49.519c0-.72-.32-1.119-1.039-1.119a6.309,6.309,0,0,0-1.359.16v.32s.879-.08,1.359-.08a.636.636,0,0,1,.72.72v.32l-1.2.08c-.72.08-1.039.4-1.039,1.039S32.72,52,33.359,52a5.07,5.07,0,0,0,1.359-.24c.24.24.4.24.8.24v-.32c-.24,0-.4-.08-.4-.32Zm-.4,0a4.054,4.054,0,0,1-1.2.24c-.56,0-.56-.24-.56-.72a.647.647,0,0,1,.64-.72l1.119-.08v1.279Z" transform="translate(-8.094 -9.703)" fill="#585857"/>
        <path id="Path_21375" data-name="Path 21375" d="M38.019,51.437c-.48,0-.56-.24-.56-1.039V48.639h1.2v-.4h-1.2V47.2h-.4v1.039H36.5v.4h.56v1.919c0,1.039.24,1.279.959,1.279s.72-.08.72-.08v-.4C38.739,51.437,38.259,51.437,38.019,51.437Z" transform="translate(-8.916 -9.462)" fill="#585857"/>
        <path id="Path_21376" data-name="Path 21376" d="M44.438,46.8l-1.279,2.319L41.88,46.8H41.4l1.519,2.8v2h.4v-2l1.519-2.8Z" transform="translate(-9.898 -9.382)" fill="#585857"/>
        <path id="Path_21377" data-name="Path 21377" d="M47.239,48.5c-1.039,0-1.439.56-1.439,1.759s.24,1.839,1.439,1.839,1.439-.56,1.439-1.839C48.678,48.9,48.279,48.5,47.239,48.5Zm0,3.2c-.879,0-1.039-.4-1.039-1.519,0-1.039.24-1.359,1.039-1.359s1.039.4,1.039,1.359C48.279,51.218,48.119,51.7,47.239,51.7Z" transform="translate(-10.78 -9.723)" fill="#585857"/>
        <path id="Path_21378" data-name="Path 21378" d="M52.739,51.358a2.6,2.6,0,0,1-1.039.24c-.56,0-.8-.32-.8-1.359V48.4h-.4v1.839c0,1.279.24,1.679,1.2,1.679s1.039-.32,1.039-.32v.24h.4V48.4h-.4v2.958Z" transform="translate(-11.723 -9.703)" fill="#585857"/>
        <path id="Path_21379" data-name="Path 21379" d="M60.877,51.277h-.24L59.6,46.88h-.56L58,51.277h-.24L56.88,46.8H56.4l1.039,4.877h1.039l.959-4.238.959,4.238h.879L62.317,46.8h-.4Z" transform="translate(-12.905 -9.382)" fill="#585857"/>
        <path id="Path_21380" data-name="Path 21380" d="M65.739,48.5c-.879,0-1.439.48-1.439,1.839s.32,1.839,1.359,1.839c.56,0,1.359-.08,1.359-.08v-.32s-.8.08-1.279.08c-.72,0-.959-.4-.959-1.279H67.1v-.32c-.08-1.279-.56-1.759-1.359-1.759ZM64.7,50.1c0-.879.4-1.279,1.039-1.279s.959.32.959,1.279Z" transform="translate(-14.489 -9.723)" fill="#585857"/>
        <path id="Path_21381" data-name="Path 21381" d="M69.4,46.6H69v5.037h.4Z" transform="translate(-15.431 -9.342)" fill="#585857"/>
        <path id="Path_21382" data-name="Path 21382" d="M71.2,46.6h-.4v5.037h.4Z" transform="translate(-15.792 -9.342)" fill="#585857"/>
      </g>
    </g>
  </g>
</svg>
