<svg id="Group_11284" data-name="Group 11284" xmlns="http://www.w3.org/2000/svg" width="174.952" height="43.086" viewBox="0 0 174.952 43.086">
  <g id="Group_2" data-name="Group 2" transform="translate(0 0)">
    <rect id="Rectangle_1" data-name="Rectangle 1" width="43.082" height="43.082" fill="#951e60"/>
    <g id="Group_1" data-name="Group 1" transform="translate(5.239 14.413)">
      <path id="Path_1" data-name="Path 1" d="M69.441,170.053H66.548v-5.562l-2.6,3.216h-.231L61.1,164.491v5.562H58.29V160.47h2.616l2.953,3.585,2.961-3.585h2.622Z" transform="translate(-58.29 -160.46)" fill="#fff"/>
      <path id="Path_2" data-name="Path 2" d="M318.093,165.309a3.162,3.162,0,0,0-.446-1.815,2.182,2.182,0,0,0-1.07-.874,3.835,3.835,0,0,0-1.273-.22h-1.232v5.652H315.3a3.523,3.523,0,0,0,1.961-.537,2.456,2.456,0,0,0,.828-2.208m2.958.12a4.544,4.544,0,0,1-.538,2.365,5.1,5.1,0,0,1-1.269,1.444,4.562,4.562,0,0,1-2.89.813H311.18v-9.58h3.986a10.776,10.776,0,0,1,1.539.092,6.531,6.531,0,0,1,1.156.268,4.4,4.4,0,0,1,.87.376,5.383,5.383,0,0,1,.645.456,4.282,4.282,0,0,1,.864.949,4.519,4.519,0,0,1,.591,1.258,5.216,5.216,0,0,1,.22,1.558" transform="translate(-288.451 -160.46)" fill="#fff"/>
      <rect id="Rectangle_2" data-name="Rectangle 2" width="7.112" height="1.933" transform="translate(13.409)" fill="#fff"/>
      <rect id="Rectangle_3" data-name="Rectangle 3" width="7.112" height="1.936" transform="translate(13.409 3.668)" fill="#fff"/>
      <rect id="Rectangle_4" data-name="Rectangle 4" width="7.112" height="1.936" transform="translate(13.409 7.667)" fill="#fff"/>
      <path id="Path_3" data-name="Path 3" d="M66.386,292.262v.759a6.86,6.86,0,0,0-3.2-.857,3.754,3.754,0,0,0-2.789,1.145,3.9,3.9,0,0,0-1.122,2.852,3.844,3.844,0,0,0,1.128,2.852,3.947,3.947,0,0,0,2.89,1.117,6.78,6.78,0,0,0,3.193-.927v.727a6.726,6.726,0,0,1-3.184.855,4.706,4.706,0,0,1-3.416-1.325,4.657,4.657,0,0,1,3.347-7.95,7.544,7.544,0,0,1,3.15.752" transform="translate(-58.499 -279.723)" fill="#fff"/>
      <path id="Path_4" data-name="Path 4" d="M164.036,297.725l-1.942-4.236-1.937,4.236Zm-1.728-5.375,4.148,9.072h-.732l-1.428-3.114h-4.409l-1.424,3.114h-.732l4.173-9.072Z" transform="translate(-148.8 -280.487)" fill="#fff"/>
      <path id="Path_5" data-name="Path 5" d="M273.314,293.514v3.54h1.5a2.825,2.825,0,0,0,1.745-.461,1.713,1.713,0,0,0-.008-2.613,2.865,2.865,0,0,0-1.761-.465Zm-.7-.576h2.316a3.423,3.423,0,0,1,2.218.628,2.09,2.09,0,0,1,.768,1.7,2.254,2.254,0,0,1-1.708,2.2,4.015,4.015,0,0,1,1.2,1.375l2.044,3.114h-.807l-1.6-2.469a6.11,6.11,0,0,0-1.22-1.549,2.286,2.286,0,0,0-1.286-.3h-1.22v4.323h-.7Z" transform="translate(-253.348 -281.022)" fill="#fff"/>
      <path id="Path_6" data-name="Path 6" d="M368.594,292.94v.576h-4.221v3.621h4.095v.576h-4.095v3.67h4.319v.578H363.67V292.94Z" transform="translate(-336.222 -281.024)" fill="#fff"/>
      <path id="Path_7" data-name="Path 7" d="M69.441,170.053H66.548v-5.562l-2.6,3.216h-.231L61.1,164.491v5.562H58.29V160.47h2.616l2.953,3.585,2.961-3.585h2.622Z" transform="translate(-58.29 -160.46)" fill="#fff"/>
      <path id="Path_8" data-name="Path 8" d="M318.093,165.309a3.162,3.162,0,0,0-.446-1.815,2.182,2.182,0,0,0-1.07-.874,3.835,3.835,0,0,0-1.273-.22h-1.232v5.652H315.3a3.523,3.523,0,0,0,1.961-.537,2.456,2.456,0,0,0,.828-2.208m2.958.12a4.544,4.544,0,0,1-.538,2.365,5.1,5.1,0,0,1-1.269,1.444,4.562,4.562,0,0,1-2.89.813H311.18v-9.58h3.986a10.776,10.776,0,0,1,1.539.092,6.531,6.531,0,0,1,1.156.268,4.4,4.4,0,0,1,.87.376,5.383,5.383,0,0,1,.645.456,4.282,4.282,0,0,1,.864.949,4.519,4.519,0,0,1,.591,1.258,5.216,5.216,0,0,1,.22,1.558" transform="translate(-288.451 -160.46)" fill="#fff"/>
      <rect id="Rectangle_5" data-name="Rectangle 5" width="7.112" height="1.933" transform="translate(13.409)" fill="#fff"/>
      <rect id="Rectangle_6" data-name="Rectangle 6" width="7.112" height="1.936" transform="translate(13.409 3.668)" fill="#fff"/>
      <rect id="Rectangle_7" data-name="Rectangle 7" width="7.112" height="1.936" transform="translate(13.409 7.667)" fill="#fff"/>
      <path id="Path_9" data-name="Path 9" d="M66.386,292.262v.759a6.86,6.86,0,0,0-3.2-.857,3.754,3.754,0,0,0-2.789,1.145,3.9,3.9,0,0,0-1.122,2.852,3.844,3.844,0,0,0,1.128,2.852,3.947,3.947,0,0,0,2.89,1.117,6.78,6.78,0,0,0,3.193-.927v.727a6.726,6.726,0,0,1-3.184.855,4.706,4.706,0,0,1-3.416-1.325,4.657,4.657,0,0,1,3.347-7.95,7.544,7.544,0,0,1,3.15.752" transform="translate(-58.499 -279.723)" fill="#fff"/>
      <path id="Path_10" data-name="Path 10" d="M164.036,297.725l-1.942-4.236-1.937,4.236Zm-1.728-5.375,4.148,9.072h-.732l-1.428-3.114h-4.409l-1.424,3.114h-.732l4.173-9.072Z" transform="translate(-148.8 -280.487)" fill="#fff"/>
      <path id="Path_11" data-name="Path 11" d="M273.314,293.514v3.54h1.5a2.825,2.825,0,0,0,1.745-.461,1.713,1.713,0,0,0-.008-2.613,2.865,2.865,0,0,0-1.761-.465Zm-.7-.576h2.316a3.423,3.423,0,0,1,2.218.628,2.09,2.09,0,0,1,.768,1.7,2.254,2.254,0,0,1-1.708,2.2,4.015,4.015,0,0,1,1.2,1.375l2.044,3.114h-.807l-1.6-2.469a6.11,6.11,0,0,0-1.22-1.549,2.286,2.286,0,0,0-1.286-.3h-1.22v4.323h-.7Z" transform="translate(-253.348 -281.022)" fill="#fff"/>
      <path id="Path_12" data-name="Path 12" d="M368.594,292.94v.576h-4.221v3.621h4.095v.576h-4.095v3.67h4.319v.578H363.67V292.94Z" transform="translate(-336.222 -281.024)" fill="#fff"/>
    </g>
  </g>
  <g id="Group_4" data-name="Group 4" transform="translate(51.949 39.447)">
    <g id="Group_3" data-name="Group 3">
      <path id="Path_13" data-name="Path 13" d="M578.717,439.43l.883,2.185.929-2.185h.578l.933,2.2.879-2.2h.7l-1.458,3.587h-.23l-1.115-2.626-1.121,2.626h-.224l-1.464-3.587h.708" transform="translate(-578.008 -439.382)"/>
      <path id="Path_14" data-name="Path 14" d="M651.317,439.43v.535h-1.6v.93h1.535v.537h-1.535v1.007h1.64v.535H649.03V439.43h2.287" transform="translate(-642.645 -439.382)"/>
      <path id="Path_15" data-name="Path 15" d="M684.826,438.919a.4.4,0,0,1,.325.151.613.613,0,0,1,.12.4.889.889,0,0,1-.223.6.878.878,0,0,1-.548.306v-.132a.677.677,0,0,0,.244-.536l-.006-.081a.319.319,0,0,1-.287-.348.336.336,0,0,1,.108-.254.366.366,0,0,1,.268-.1" transform="translate(-674.881 -438.917)"/>
      <path id="Path_16" data-name="Path 16" d="M704.994,439.43v3.009h1.72v.535h-2.4V439.43h.684" transform="translate(-692.957 -439.382)"/>
      <path id="Path_17" data-name="Path 17" d="M740.986,439.43v3.009H742.7v.535h-2.4V439.43h.686" transform="translate(-725.712 -439.382)"/>
      <path id="Path_18" data-name="Path 18" d="M792.659,439.43v.535H791.4v3.01h-.684v-3.01H789.46v-.535h3.2" transform="translate(-770.454 -439.382)"/>
      <path id="Path_19" data-name="Path 19" d="M836.166,439.421a1.191,1.191,0,0,1,.813.276.91.91,0,0,1,.314.719.9.9,0,0,1-.155.527,1.028,1.028,0,0,1-.463.354.987.987,0,0,1,.3.244,3.061,3.061,0,0,1,.325.53c.216.429.376.726.481.887h-.762a3.734,3.734,0,0,1-.214-.374q-.3-.564-.43-.761a1.081,1.081,0,0,0-.264-.28.533.533,0,0,0-.292-.081h-.244v1.5h-.685v-3.54h1.275m-.155,1.512a.62.62,0,0,0,.422-.134.464.464,0,0,0,.152-.368.437.437,0,0,0-.152-.364.685.685,0,0,0-.434-.12h-.424v.986Z" transform="translate(-811.801 -439.373)"/>
      <path id="Path_20" data-name="Path 20" d="M878.427,439.43v.535h-1.6v.93h1.536v.537h-1.536v1.007h1.642v.535H876.14V439.43h2.287" transform="translate(-849.343 -439.382)"/>
      <path id="Path_21" data-name="Path 21" d="M911.232,439.43l1.564,3.542h-.722l-.368-.862h-1.575l-.341.862h-.72l1.464-3.542h.7m-.895,2.16h1.139l-.6-1.4Z" transform="translate(-879.314 -439.382)"/>
      <path id="Path_22" data-name="Path 22" d="M954.867,439.43v.535H953.61v3.01h-.686v-3.01H951.67v-.535h3.2" transform="translate(-918.084 -439.382)"/>
      <path id="Path_23" data-name="Path 23" d="M1011.571,439.43l.857,1.183.866-1.183h.813l-1.339,1.789v1.755h-.685v-1.76l-1.345-1.782h.831" transform="translate(-971.845 -439.382)"/>
      <path id="Path_24" data-name="Path 24" d="M1054.376,438.919a2.125,2.125,0,0,1,.99.229,1.791,1.791,0,0,1,.708,2.508,1.726,1.726,0,0,1-.7.658,2.08,2.08,0,0,1-1,.238,2.107,2.107,0,0,1-1-.238,1.756,1.756,0,0,1-.952-1.577,1.8,1.8,0,0,1,.25-.916,1.749,1.749,0,0,1,.693-.666,2.1,2.1,0,0,1,1.012-.237m-1.251,1.817a1.262,1.262,0,0,0,.163.634,1.141,1.141,0,0,0,.444.438,1.347,1.347,0,0,0,.646.153,1.229,1.229,0,0,0,.895-.342,1.183,1.183,0,0,0,.351-.883,1.286,1.286,0,0,0-.156-.635,1.1,1.1,0,0,0-.448-.438,1.422,1.422,0,0,0-1.295,0,1.1,1.1,0,0,0-.442.436,1.283,1.283,0,0,0-.156.638Z" transform="translate(-1009.778 -438.917)"/>
      <path id="Path_25" data-name="Path 25" d="M1107.455,439.43v2.061a1.156,1.156,0,0,0,.1.506.752.752,0,0,0,.31.307,1.013,1.013,0,0,0,.5.122,1.139,1.139,0,0,0,.534-.114.718.718,0,0,0,.319-.315,1.221,1.221,0,0,0,.1-.551V439.43H1110v2.1a1.4,1.4,0,0,1-.428,1.1,1.755,1.755,0,0,1-1.211.384,1.934,1.934,0,0,1-.852-.175,1.252,1.252,0,0,1-.555-.508,1.534,1.534,0,0,1-.19-.777V439.43h.687" transform="translate(-1059.243 -439.382)"/>
      <path id="Path_26" data-name="Path 26" d="M1165.557,439.43l.882,2.185.929-2.185h.576l.933,2.2.879-2.2h.7L1169,443.017h-.23l-1.116-2.626-1.12,2.626h-.223l-1.464-3.587h.707" transform="translate(-1112.104 -439.382)"/>
      <path id="Path_27" data-name="Path 27" d="M1238.141,439.43v.535h-1.607v.93h1.537v.537h-1.537v1.007h1.641v.535h-2.325V439.43h2.292" transform="translate(-1176.722 -439.382)"/>
      <path id="Path_28" data-name="Path 28" d="M1273.555,439.43v3.009h1.718v.535h-2.4V439.43h.685" transform="translate(-1210.415 -439.382)"/>
      <path id="Path_29" data-name="Path 29" d="M1309.565,439.43v3.009h1.719v.535h-2.4V439.43h.685" transform="translate(-1243.189 -439.382)"/>
    </g>
  </g>
  <g id="Group_5" data-name="Group 5" transform="translate(52.148 14.311)">
    <path id="Path_30" data-name="Path 30" d="M581.806,160.45v3.476h4.286V160.45h1.594v8.256h-1.6v-3.487H581.8v3.487H580.21V160.45Z" transform="translate(-580.21 -160.34)"/>
    <path id="Path_31" data-name="Path 31" d="M700.693,159.27A4.957,4.957,0,0,1,703,159.8a4.061,4.061,0,0,1,1.634,1.525,4.169,4.169,0,0,1-1.617,5.869,5.222,5.222,0,0,1-4.669-.009,4.087,4.087,0,0,1-2.219-3.676,4.147,4.147,0,0,1,.585-2.134,4.059,4.059,0,0,1,1.614-1.551,4.908,4.908,0,0,1,2.364-.555Zm-2.914,4.238a2.946,2.946,0,0,0,.372,1.478A2.583,2.583,0,0,0,699.188,166a3.109,3.109,0,0,0,1.5.36,2.871,2.871,0,0,0,2.09-.8,2.748,2.748,0,0,0,.819-2.056,2.976,2.976,0,0,0-.369-1.48,2.553,2.553,0,0,0-1.041-1.019,3.335,3.335,0,0,0-3.02,0,2.532,2.532,0,0,0-1.031,1.017A3,3,0,0,0,697.78,163.507Z" transform="translate(-685.712 -159.266)"/>
    <path id="Path_32" data-name="Path 32" d="M828.409,159.269a4.827,4.827,0,0,1,2.322.6v1.419a4.544,4.544,0,0,0-2.278-.774,1.65,1.65,0,0,0-.943.233.721.721,0,0,0-.34.624q0,.467.633.863.176.119,1.365.662a3.916,3.916,0,0,1,1.464,1.064,2.244,2.244,0,0,1,.449,1.406,2.145,2.145,0,0,1-.765,1.717,2.95,2.95,0,0,1-1.983.651,4.706,4.706,0,0,1-1.362-.174,5.919,5.919,0,0,1-1.279-.6v-1.57a4.012,4.012,0,0,0,2.494,1.1,1.6,1.6,0,0,0,.945-.255.786.786,0,0,0,.36-.674,1.064,1.064,0,0,0-.626-.934q-.521-.283-1.342-.679a3.948,3.948,0,0,1-1.457-1.035,2.108,2.108,0,0,1-.481-1.371,2.013,2.013,0,0,1,.773-1.658,3.2,3.2,0,0,1,2.052-.617Z" transform="translate(-803.534 -159.265)"/>
    <path id="Path_33" data-name="Path 33" d="M921.641,160.449a2.661,2.661,0,0,1,1.882.67,2.251,2.251,0,0,1,.725,1.728,2.225,2.225,0,0,1-.732,1.732,2.773,2.773,0,0,1-1.932.662h-1.537v3.463h-1.6v-8.256Zm-.4,3.546a1.524,1.524,0,0,0,1-.293,1.057,1.057,0,0,0,.358-.865q0-1.139-1.464-1.139h-1.09V164Z" transform="translate(-888.049 -160.34)"/>
    <path id="Path_34" data-name="Path 34" d="M1015.245,160.45v8.256h-1.595V160.45Z" transform="translate(-974.693 -160.34)"/>
    <path id="Path_35" data-name="Path 35" d="M1068.891,160.45V161.7h-2.928v7.008h-1.595V161.7h-2.928V160.45Z" transform="translate(-1018.18 -160.34)"/>
    <path id="Path_36" data-name="Path 36" d="M1158.837,160.45l3.646,8.257H1160.8l-.857-2.01h-3.67l-.8,2.01H1153.8l3.4-8.257Zm-2.081,5.036h2.666l-1.392-3.269Z" transform="translate(-1102.246 -160.34)"/>
    <path id="Path_37" data-name="Path 37" d="M1278.957,160.45v7.01h4.006v1.246h-5.6V160.45Z" transform="translate(-1214.701 -160.34)"/>
    <path id="Path_38" data-name="Path 38" d="M1366.1,159.269a4.83,4.83,0,0,1,2.323.6v1.419a4.545,4.545,0,0,0-2.278-.773,1.648,1.648,0,0,0-.943.233.72.72,0,0,0-.34.624q0,.467.633.863.178.119,1.365.662a3.914,3.914,0,0,1,1.464,1.064,2.243,2.243,0,0,1,.449,1.406,2.146,2.146,0,0,1-.765,1.717,2.951,2.951,0,0,1-1.983.651,4.7,4.7,0,0,1-1.363-.174,5.92,5.92,0,0,1-1.28-.6v-1.57a4.012,4.012,0,0,0,2.494,1.1,1.6,1.6,0,0,0,.945-.255.787.787,0,0,0,.361-.674,1.065,1.065,0,0,0-.627-.934q-.52-.283-1.342-.679a3.947,3.947,0,0,1-1.457-1.035,2.108,2.108,0,0,1-.481-1.371,2.012,2.012,0,0,1,.773-1.658A3.2,3.2,0,0,1,1366.1,159.269Z" transform="translate(-1292.897 -159.265)"/>
  </g>
  <g id="Group_6" data-name="Group 6" transform="translate(64.073 26.987)">
    <path id="Path_39" data-name="Path 39" d="M714.1,301.29l2.3,2.756,2.3-2.756h1.205v6.986h-1.35V303.37H718.5l-2.021,2.461h-.189l-2.021-2.461h-.04v4.906h-1.35V301.29Z" transform="translate(-712.879 -301.197)"/>
    <path id="Path_40" data-name="Path 40" d="M826.217,301.29v1.057h-3.166v1.835h3.031v1.057h-3.031v1.985h3.236v1.057H821.7V301.29Z" transform="translate(-811.918 -301.197)"/>
    <path id="Path_41" data-name="Path 41" d="M903.355,301.29a4.122,4.122,0,0,1,1.941.445,3.225,3.225,0,0,1,1.32,1.25,3.522,3.522,0,0,1,.47,1.81,3.479,3.479,0,0,1-.473,1.818,3.181,3.181,0,0,1-1.343,1.227,4.4,4.4,0,0,1-2,.435h-2.847V301.29Zm-.14,5.931a2.44,2.44,0,0,0,1.8-.673,2.652,2.652,0,0,0-.006-3.547,2.542,2.542,0,0,0-1.838-.656h-1.39v4.876h1.436Z" transform="translate(-883.573 -301.197)"/>
    <path id="Path_42" data-name="Path 42" d="M1003.87,301.29v6.986h-1.35V301.29Z" transform="translate(-976.487 -301.197)"/>
    <path id="Path_43" data-name="Path 43" d="M1049.509,300.29a5.042,5.042,0,0,1,1.165.135,5.883,5.883,0,0,1,1.23.46v1.27a5.747,5.747,0,0,0-1.192-.534,3.953,3.953,0,0,0-1.139-.163,2.907,2.907,0,0,0-1.345.307,2.261,2.261,0,0,0-.933.867,2.522,2.522,0,0,0,0,2.5,2.212,2.212,0,0,0,.931.857,2.963,2.963,0,0,0,1.35.3,3.6,3.6,0,0,0,1.1-.163,7.926,7.926,0,0,0,1.318-.595v1.27a6.078,6.078,0,0,1-1.25.505,5.275,5.275,0,0,1-1.33.15,4.311,4.311,0,0,1-1.976-.441,3.305,3.305,0,0,1-1.368-1.268,3.457,3.457,0,0,1-.5-1.813,3.57,3.57,0,0,1,.513-1.9,3.432,3.432,0,0,1,1.41-1.295A4.441,4.441,0,0,1,1049.509,300.29Z" transform="translate(-1015.66 -300.287)"/>
    <path id="Path_44" data-name="Path 44" d="M1141.241,301.29l3.086,6.986H1142.9l-.725-1.7h-3.105l-.675,1.7h-1.415l2.881-6.986Zm-1.761,4.261h2.256l-1.18-2.765Z" transform="translate(-1098.862 -301.197)"/>
    <path id="Path_45" data-name="Path 45" d="M1242.88,301.29v5.931h3.391v1.057h-4.741V301.29Z" transform="translate(-1194.015 -301.197)"/>
    <path id="Path_46" data-name="Path 46" d="M1364.389,300.29a5.039,5.039,0,0,1,1.165.135,5.892,5.892,0,0,1,1.23.46v1.27a5.772,5.772,0,0,0-1.193-.534,3.949,3.949,0,0,0-1.139-.163,2.908,2.908,0,0,0-1.345.307,2.258,2.258,0,0,0-.933.867,2.523,2.523,0,0,0,0,2.5,2.215,2.215,0,0,0,.93.857,2.962,2.962,0,0,0,1.35.3,3.6,3.6,0,0,0,1.1-.163,7.929,7.929,0,0,0,1.318-.595v1.27a6.08,6.08,0,0,1-1.25.505,5.268,5.268,0,0,1-1.33.151,4.31,4.31,0,0,1-1.976-.441,3.3,3.3,0,0,1-1.368-1.268,3.45,3.45,0,0,1-.5-1.813,3.567,3.567,0,0,1,.512-1.9,3.431,3.431,0,0,1,1.41-1.295A4.444,4.444,0,0,1,1364.389,300.29Z" transform="translate(-1302.239 -300.287)"/>
    <path id="Path_47" data-name="Path 47" d="M1464.406,301.29v1.057h-3.166v1.835h3.031v1.057h-3.031v1.985h3.236v1.057h-4.586V301.29Z" transform="translate(-1392.749 -301.197)"/>
    <path id="Path_48" data-name="Path 48" d="M1539.786,301.29l4.148,4.876V301.29h1.32v6.986h-1.16l-4.176-4.956v4.956H1538.6V301.29Z" transform="translate(-1464.385 -301.197)"/>
    <path id="Path_49" data-name="Path 49" d="M1644.011,301.29v1.057h-2.481v5.931h-1.35v-5.931H1637.7V301.29Z" transform="translate(-1554.577 -301.197)"/>
    <path id="Path_50" data-name="Path 50" d="M1735.516,301.289a2.343,2.343,0,0,1,1.605.545,1.8,1.8,0,0,1,.62,1.42,1.772,1.772,0,0,1-.308,1.038,2.032,2.032,0,0,1-.913.7,2.042,2.042,0,0,1,.6.488,6.365,6.365,0,0,1,.645,1.045q.64,1.27.95,1.751H1737.2a8.424,8.424,0,0,1-.42-.732,15.977,15.977,0,0,0-.85-1.5,2.024,2.024,0,0,0-.521-.55,1.038,1.038,0,0,0-.575-.163h-.488v2.951H1733v-6.988Zm-.306,2.98a1.22,1.22,0,0,0,.832-.265.915.915,0,0,0,.3-.726.859.859,0,0,0-.3-.717,1.354,1.354,0,0,0-.855-.238h-.84v1.946h.86Z" transform="translate(-1641.312 -301.197)"/>
    <path id="Path_51" data-name="Path 51" d="M1824.586,301.29v1.057h-3.166v1.835h3.031v1.057h-3.031v1.985h3.236v1.057h-4.586V301.29Z" transform="translate(-1720.556 -301.197)"/>
    <path id="Path_52" data-name="Path 52" d="M1897.127,300.289a4.076,4.076,0,0,1,1.966.511V302a3.843,3.843,0,0,0-1.925-.656,1.394,1.394,0,0,0-.8.2.611.611,0,0,0-.288.528q0,.4.534.732.15.1,1.155.56a3.308,3.308,0,0,1,1.24.9,1.9,1.9,0,0,1,.38,1.19,1.814,1.814,0,0,1-.651,1.453,2.494,2.494,0,0,1-1.678.553,3.99,3.99,0,0,1-1.153-.147,4.987,4.987,0,0,1-1.083-.508v-1.33a3.394,3.394,0,0,0,2.11.931,1.362,1.362,0,0,0,.8-.215.665.665,0,0,0,.3-.569.9.9,0,0,0-.53-.79q-.439-.244-1.139-.575a3.347,3.347,0,0,1-1.233-.875,1.784,1.784,0,0,1-.407-1.161,1.7,1.7,0,0,1,.655-1.4,2.709,2.709,0,0,1,1.739-.526Z" transform="translate(-1788.513 -300.286)"/>
  </g>
  <path id="Path_53" data-name="Path 53" d="M579.323,297.288a1.431,1.431,0,0,0-1.093-.481,1.6,1.6,0,0,0-1.04.334,1,1,0,0,0-.421.781.762.762,0,0,0,.172.494.62.62,0,0,0,.513.22.651.651,0,0,0,.475-.189.6.6,0,0,0,.194-.445.737.737,0,0,0-.151-.425.382.382,0,0,1-.086-.178.106.106,0,0,1,.058-.1.6.6,0,0,1,.274-.049.856.856,0,0,1,.651.268.972.972,0,0,1,.258.7,1.168,1.168,0,0,1-.591,1.081,4.005,4.005,0,0,1-2,.374,3.181,3.181,0,0,0-2.23.612,1.879,1.879,0,0,0-.625,1.364,1.24,1.24,0,0,0,1.242,1.249.994.994,0,0,0,.712-.27.91.91,0,0,0,.28-.678.615.615,0,0,0-.18-.466.59.59,0,0,0-.419-.168.532.532,0,0,0-.427.2.721.721,0,0,0-.163.482.846.846,0,0,0,.006.111l0,.064c0,.122-.048.146-.129.146a.43.43,0,0,1-.311-.177.666.666,0,0,1-.163-.468.964.964,0,0,1,.472-.819,1.886,1.886,0,0,1,1.111-.343,1.689,1.689,0,0,1,1.22.434,1.364,1.364,0,0,1,.445,1.018,1.862,1.862,0,0,1-.923,1.533,3.87,3.87,0,0,1-2.262.656,3.375,3.375,0,0,1-2.327-.834,2.387,2.387,0,0,1-.93-1.757,1.139,1.139,0,0,1,.3-.793.723.723,0,0,1,1.139-.1.864.864,0,0,0,.52.26.388.388,0,0,0,.32-.14.446.446,0,0,0,.1-.281c0-.369-.3-.557-.895-.557a.171.171,0,0,1-.122-.038.707.707,0,0,1-.124-.244,1.375,1.375,0,0,1-.075-.483,1.546,1.546,0,0,1,.529-1.144,1.636,1.636,0,0,1,1.135-.505.982.982,0,0,1,.624.2.582.582,0,0,1,.244.488,1.085,1.085,0,0,1-.086.42.61.61,0,0,0-.065.217.187.187,0,0,0,.2.205.614.614,0,0,0,.488-.338,1.254,1.254,0,0,0,.207-.695,1.1,1.1,0,0,0-.437-.869,1.627,1.627,0,0,0-1.065-.356,2.159,2.159,0,0,0-1.087.3,2.64,2.64,0,0,0-.855.79,1.864,1.864,0,0,0-.341,1.077,2.506,2.506,0,0,0,.217.97,2.008,2.008,0,0,0-1.769,2.09,2.658,2.658,0,0,0,.316,1.269,2.953,2.953,0,0,0,.86.995,4.336,4.336,0,0,0,1.139.614,4.826,4.826,0,0,0,1.559.211,5.107,5.107,0,0,0,2.01-.355,3.591,3.591,0,0,0,1.411-1.093,2.481,2.481,0,0,0,.59-1.545,2.025,2.025,0,0,0-.759-1.6,4.459,4.459,0,0,0,1.273-.231,1.987,1.987,0,0,0,.928-.727,1.93,1.93,0,0,0,.369-1.145A1.649,1.649,0,0,0,579.323,297.288Z" transform="translate(-518.822 -270.131)"/>
</svg>
